<mxfile host="app.diagrams.net" modified="2023-12-27T09:13:54.337Z" agent="Mozilla/5.0 (Windows NT 10.0; Win64; x64) AppleWebKit/537.36 (KHTML, like Gecko) Chrome/120.0.0.0 Safari/537.36 Edg/120.0.0.0" etag="bOG6TlHViDK8ohYsWxY_" version="22.1.12" type="github">
  <diagram name="第 1 页" id="j1WxOR-EJRATAohRwNbR">
    <mxGraphModel dx="660" dy="374" grid="1" gridSize="10" guides="1" tooltips="1" connect="1" arrows="1" fold="1" page="1" pageScale="1" pageWidth="1654" pageHeight="1169" math="1" shadow="0">
      <root>
        <mxCell id="0" />
        <mxCell id="1" parent="0" />
        <mxCell id="21ID2ktF6W2Ecx6glOLF-1" value="$$H_2SO_4 = 2H^++ SO_4^{2-}$$&amp;nbsp;" style="text;html=1;align=center;verticalAlign=middle;resizable=0;points=[];autosize=1;strokeColor=none;fillColor=none;" vertex="1" parent="1">
          <mxGeometry x="245" y="268" width="210" height="30" as="geometry" />
        </mxCell>
        <mxCell id="21ID2ktF6W2Ecx6glOLF-2" value="$$\vec{a}+\vec{b}=\vec{b}+\vec a$$" style="text;html=1;align=center;verticalAlign=middle;resizable=0;points=[];autosize=1;strokeColor=none;fillColor=none;" vertex="1" parent="1">
          <mxGeometry x="230" y="330" width="210" height="30" as="geometry" />
        </mxCell>
      </root>
    </mxGraphModel>
  </diagram>
</mxfile>
